# xmcd
#
# Track frame offsets:
#	182
#	12087
#	24695
#	36797
#	48787
#	61612
#	75485
#	97852
#	108925
#	121530
#	131650
#	145030
#
# Disc length: 2085 seconds
#
# Revision: 0
# Processed by: cddbd v1.4PL0 Copyright (c) Steve Scherf et al.
# Submitted via: dBpowerAMP V4.0
#
DISCID=8108230c
DTITLE=The Platters - Best of
DYEAR=1900
DGENRE=Blues
TTITLE0=Only you
TTITLE1=Twilight time
TTITLE2=Smoke gets in your eyes
TTITLE3=The great pretender
TTITLE4=Remember when
TTITLE5=Alone in the night
TTITLE6=Unchained melody
TTITLE7=The magic touch
TTITLE8=My prayer
TTITLE9=If you need me
TTITLE10=I'm sorry
TTITLE11=My dream
EXTD=
EXTT0=
EXTT1=
EXTT2=
EXTT3=
EXTT4=
EXTT5=
EXTT6=
EXTT7=
EXTT8=
EXTT9=
EXTT10=
EXTT11=
PLAYORDER=
